<svg width="266" height="67" viewBox="0 0 266 67" fill="none" xmlns="http://www.w3.org/2000/svg">
<path d="M59.7063 34.8356L30.6886 50.7925C30.4951 50.8996 30.2634 50.8996 30.07 50.7925L1.05227 34.8356C0.909199 34.7568 0.733887 34.8598 0.733887 35.0235V39.2642C0.733887 39.343 0.776202 39.4158 0.844716 39.4521L30.2755 55.6394C30.34 55.6737 30.4166 55.6737 30.481 55.6394L59.9118 39.4521C59.9803 39.4138 60.0226 39.341 60.0226 39.2642V35.0235C60.0226 34.8598 59.8473 34.7568 59.7043 34.8356H59.7063Z" fill="url(#paint0_linear_31_2616)"/>
<path d="M59.7063 45.8004L30.6886 61.7594C30.4951 61.8665 30.2634 61.8665 30.07 61.7594L1.05227 45.8004C0.909199 45.7216 0.733887 45.8247 0.733887 45.9883V50.2311C0.733887 50.3099 0.776202 50.3827 0.844716 50.419L30.2755 66.6042C30.34 66.6386 30.4166 66.6386 30.481 66.6042L59.9118 50.419C59.9803 50.3806 60.0226 50.3099 60.0226 50.2311V45.9883C60.0226 45.8247 59.8473 45.7216 59.7043 45.8004H59.7063Z" fill="url(#paint1_linear_31_2616)"/>
<path d="M55.807 14.2765L51.9501 16.3958C51.8816 16.4342 51.807 16.4342 51.7445 16.3958L30.7229 4.86759C30.5294 4.76051 30.2977 4.76051 30.1042 4.86759L24.3954 7.99512L23.5954 8.43961L8.4014 16.8221C8.4014 16.9029 8.43969 16.9918 8.52029 17.0343L8.55858 17.0585H8.56463L20.3954 23.554L30.1062 28.8757C30.2997 28.9828 30.5314 28.9828 30.7249 28.8696L40.6533 23.3601C40.7158 23.3217 40.7964 23.3217 40.8589 23.3601L44.7864 25.5865L44.8549 25.631L44.867 25.637C44.9476 25.6815 44.9476 25.7946 44.867 25.837L30.5173 33.7165C30.4548 33.7488 30.3742 33.7488 30.3118 33.7165L15.8493 25.7805L4.01852 19.291L3.98024 19.2728V19.2668L3.92381 19.2425L0.846733 17.5555C0.778219 17.5171 0.733887 17.4424 0.733887 17.3616V16.3776C0.733887 16.3029 0.778219 16.2281 0.846733 16.1898L4.01651 14.4522L19.8231 5.77675C19.8231 5.77675 19.8412 5.77069 19.8473 5.76463L30.3077 0.0287903C30.3702 -0.00959677 30.4508 -0.00959677 30.5133 0.0287903L55.805 13.9027C55.9481 13.9835 55.9481 14.1977 55.805 14.2785L55.807 14.2765Z" fill="url(#paint2_linear_31_2616)"/>
<path d="M48.3798 30.2836L52.0977 28.1056C52.1642 28.0672 52.2045 27.9965 52.2045 27.9198V26.4954C52.2045 26.4186 52.1621 26.3479 52.0956 26.3095L48.9561 24.5195H48.9501L48.9138 24.4952L44.1924 21.8041L44.1561 21.7839H44.15L39.2291 18.9756C39.1626 18.9372 39.082 18.9372 39.0175 18.9756L35.5878 20.9293C35.4427 21.0121 35.4427 21.2202 35.5878 21.303L40.013 23.8265L40.1037 23.875H40.1077L44.7767 26.5439L44.8654 26.5924H44.8694L47.9586 28.3602C48.1601 28.4754 48.2831 28.6895 48.2831 28.9198V30.229C48.2831 30.2775 48.3355 30.3078 48.3778 30.2836H48.3798Z" fill="url(#paint3_linear_31_2616)"/>
<path d="M30.2312 39.921L30.1869 39.8947L1.05033 23.8732C0.907252 23.7944 0.731934 23.8995 0.731934 24.0611V28.3018C0.731934 28.3806 0.774255 28.4534 0.842769 28.4897L25.6388 42.1293L25.6912 42.1555H25.6932L30.2735 44.677C30.338 44.7113 30.4146 44.7113 30.4791 44.677L59.9099 28.4897C59.9784 28.4514 60.0207 28.3786 60.0207 28.3018V24.0611C60.0207 23.8974 59.8454 23.7944 59.7023 23.8732L30.5174 39.9251C30.4267 39.9756 30.3179 39.9735 30.2292 39.921" fill="url(#paint4_linear_31_2616)"/>
<path d="M87.7329 32.266C87.7269 32.0983 87.7128 31.9225 87.6906 31.7467H78.673V35.2137H82.7314C82.2982 36.0117 81.6896 36.6562 80.9077 37.1391C80.1319 37.63 79.2513 37.8684 78.282 37.8684C77.5767 37.8684 76.9138 37.7351 76.2971 37.4684C75.6825 37.1957 75.1445 36.8381 74.6971 36.3835C74.2437 35.935 73.8871 35.3955 73.6211 34.7793C73.349 34.1631 73.216 33.4984 73.216 32.7892C73.216 32.0801 73.349 31.4295 73.6211 30.8072C73.8871 30.183 74.2437 29.6455 74.6971 29.1889C75.1445 28.7404 75.6825 28.3767 76.2971 28.11C76.9118 27.8373 77.5747 27.7039 78.282 27.7039C79.1203 27.7039 79.874 27.8858 80.5591 28.2353C81.2443 28.5929 81.8165 29.0758 82.284 29.6859L85.9233 27.1847C85.0427 25.9866 83.9264 25.027 82.5843 24.3138C81.2422 23.6066 79.7833 23.249 78.2034 23.249C76.8896 23.249 75.6463 23.5016 74.4876 24.0046C73.3289 24.5097 72.3213 25.1886 71.4629 26.0493C70.6044 26.9099 69.9253 27.9201 69.4236 29.0818C68.9198 30.2516 68.6699 31.4921 68.6699 32.8074C68.6699 34.1227 68.9218 35.3713 69.4236 36.5411C69.9274 37.7028 70.6044 38.713 71.4629 39.5736C72.3213 40.4343 73.3289 41.1152 74.4876 41.6183C75.6463 42.1233 76.8916 42.3739 78.2034 42.3739C79.5153 42.3739 80.7606 42.1213 81.9193 41.6183C83.0861 41.1132 84.0916 40.4343 84.9521 39.5736C85.8105 38.713 86.4896 37.7028 86.9914 36.5411C87.4952 35.3713 87.745 34.1308 87.745 32.8074C87.745 32.6175 87.739 32.4357 87.7309 32.2619L87.7329 32.266Z" fill="#96E221"/>
<path d="M99.5399 23.4751V35.6418C99.5399 36.5671 99.288 37.2237 98.7722 37.6379C98.2624 38.044 97.6538 38.2481 96.9425 38.2481C96.2311 38.2481 95.6226 38.044 95.1127 37.6379C94.6029 37.2237 94.345 36.5671 94.345 35.6418V23.4751H89.8452V36.1388C89.8452 37.1833 90.0407 38.0864 90.4175 38.8501C90.8024 39.6138 91.3122 40.2442 91.955 40.7473C92.5898 41.2524 93.3455 41.6302 94.2039 41.8827C95.0563 42.1353 95.9712 42.2605 96.9425 42.2605C97.9137 42.2605 98.8286 42.1353 99.687 41.8827C100.539 41.6302 101.293 41.2524 101.944 40.7473C102.593 40.2422 103.111 39.6118 103.496 38.8501C103.872 38.0864 104.068 37.1833 104.068 36.1388V23.4751H99.542H99.5399Z" fill="#96E221"/>
<path d="M110.661 38.1286V23.5112H106.162V42.1209H115.627V38.1286H110.659H110.661Z" fill="#96E221"/>
<path d="M127.677 27.4955V23.5093H117.722V42.1189H122.222V34.7931H127.391V30.8069H122.222V27.4934H127.677V27.4955Z" fill="#96E221"/>
<path d="M169.948 29.4635C170.373 29.023 170.905 28.6715 171.562 28.4129C172.211 28.1462 172.967 28.0209 173.833 28.0209C174.406 28.0209 174.91 28.0553 175.343 28.126C175.776 28.1967 176.161 28.2876 176.495 28.3987C176.838 28.5099 177.144 28.6371 177.424 28.7765C177.696 28.916 177.968 29.0634 178.228 29.217V24.3701C177.971 24.2307 177.705 24.0974 177.447 23.964C177.189 23.8388 176.888 23.7256 176.552 23.6286C176.209 23.5296 175.812 23.4529 175.357 23.3902C174.895 23.3337 174.343 23.2993 173.7 23.2993C172.072 23.2993 170.648 23.5721 169.41 24.1257C168.181 24.6712 167.153 25.3864 166.337 26.2753C165.513 27.1582 164.89 28.1725 164.479 29.3079C164.06 30.4434 163.851 31.6132 163.851 32.8092C163.851 34.0053 164.06 35.1912 164.479 36.3469C164.892 37.5025 165.521 38.5248 166.359 39.4219C167.204 40.3109 168.252 41.0402 169.509 41.5938C170.76 42.1534 172.219 42.4282 173.89 42.4282C175.028 42.4282 175.943 42.3171 176.628 42.0928C177.314 41.8686 177.844 41.6302 178.228 41.3918V36.5388C177.775 36.8197 177.223 37.0702 176.566 37.2884C175.903 37.5046 174.994 37.6096 173.833 37.6096C172.967 37.6096 172.213 37.4763 171.562 37.2177C170.905 36.9591 170.376 36.6075 169.948 36.1671C169.523 35.7186 169.201 35.2155 168.985 34.6397C168.769 34.0659 168.665 33.4557 168.665 32.8112C168.665 32.1667 168.769 31.5647 168.985 30.9909C169.201 30.4171 169.523 29.912 169.948 29.4635Z" fill="#96E221"/>
<path d="M190.78 23.5112V30.8088H184.85V23.5112H180.35V42.1209H184.85V34.8233H190.78V42.1209H195.3V23.5112H190.78Z" fill="#96E221"/>
<path d="M207.586 23.5659H202.417L196.696 42.1675H201.222L202.081 39.4844H207.977L208.809 42.1675H213.309L207.588 23.5659H207.586ZM203.298 35.3386L205.073 29.6311L206.756 35.3386H203.298Z" fill="#96E221"/>
<path d="M228.252 23.5112V34.4576L219.024 23.5112H214.917V42.1209H219.417V31.3281L228.254 42.1209H232.773V23.5112H228.254H228.252Z" fill="#96E221"/>
<path d="M253.938 32.3222C253.931 32.1465 253.917 31.9727 253.895 31.7969H244.878V35.2639H248.936C248.503 36.062 247.894 36.7065 247.112 37.1974C246.336 37.6803 245.456 37.9268 244.487 37.9268C243.781 37.9268 243.118 37.7934 242.502 37.5207C241.887 37.254 241.349 36.8903 240.902 36.4418C240.448 35.9872 240.092 35.4538 239.826 34.8376C239.554 34.2214 239.421 33.5567 239.421 32.8415C239.421 32.1263 239.554 31.4898 239.826 30.8595C240.092 30.2352 240.448 29.6978 240.902 29.2492C241.349 28.7947 241.887 28.4371 242.502 28.1643C243.116 27.8976 243.779 27.7643 244.487 27.7643C245.319 27.7643 246.079 27.9401 246.764 28.2956C247.449 28.6532 248.021 29.1361 248.489 29.7382L252.128 27.237C251.247 26.0389 250.131 25.0873 248.789 24.3721C247.447 23.6569 245.988 23.3013 244.408 23.3013C243.094 23.3013 241.851 23.5538 240.692 24.0569C239.533 24.562 238.526 25.2469 237.667 26.1015C236.809 26.9622 236.13 27.9784 235.628 29.1422C235.124 30.3039 234.875 31.5444 234.875 32.8677C234.875 34.1911 235.126 35.4316 235.628 36.5933C236.132 37.755 236.809 38.7713 237.667 39.6259C238.526 40.4866 239.533 41.1735 240.692 41.6705C241.851 42.1756 243.096 42.4261 244.408 42.4261C245.72 42.4261 246.965 42.1736 248.124 41.6705C249.291 41.1735 250.296 40.4866 251.157 39.6259C252.015 38.7713 252.694 37.755 253.196 36.5933C253.7 35.4316 253.95 34.183 253.95 32.8677C253.95 32.6778 253.944 32.496 253.935 32.3222H253.938Z" fill="#96E221"/>
<path d="M266 27.4955V23.5093H256.045V42.1189H266V38.1267H260.545V34.7931H265.694V30.8069H260.545V27.4934H266V27.4955Z" fill="#96E221"/>
<path d="M161.831 42.1189H156.67L153.547 35.8173L155.074 32.7322L153.547 29.6956L156.58 23.5112H161.692L156.505 32.7363L161.831 42.1189Z" fill="#CCFF33"/>
<path d="M146.201 38.6646H133.419V42.1194H146.201V38.6646Z" fill="#CCFF33"/>
<path d="M146.225 23.5112H133.419V26.9742H146.225V23.5112Z" fill="#CCFF33"/>
<path d="M154.943 29.6956L151.91 23.5112H146.812L150.957 30.9038L133.419 30.8957V34.2495H137.891V34.2334L151.132 34.2414L146.671 42.1189H151.819L154.943 35.8173L156.47 32.7322L154.943 29.6956Z" fill="#38B000"/>
<defs>
<linearGradient id="paint0_linear_31_2616" x1="30.2674" y1="80.8516" x2="30.4275" y2="18.9231" gradientUnits="userSpaceOnUse">
<stop stop-color="#007200"/>
<stop offset="0.5" stop-color="#CCFF33"/>
<stop offset="1" stop-color="#38B000"/>
</linearGradient>
<linearGradient id="paint1_linear_31_2616" x1="30.2674" y1="91.8185" x2="30.4275" y2="29.888" gradientUnits="userSpaceOnUse">
<stop stop-color="#007200"/>
<stop offset="0.5" stop-color="#CCFF33"/>
<stop offset="1" stop-color="#38B000"/>
</linearGradient>
<linearGradient id="paint2_linear_31_2616" x1="40.6957" y1="-8.83661" x2="20.1761" y2="30.8747" gradientUnits="userSpaceOnUse">
<stop stop-color="#007200"/>
<stop offset="0.5" stop-color="#CCFF33"/>
<stop offset="1" stop-color="#38B000"/>
</linearGradient>
<linearGradient id="paint3_linear_31_2616" x1="43.7934" y1="43.9009" x2="43.8785" y2="10.4132" gradientUnits="userSpaceOnUse">
<stop stop-color="#007200"/>
<stop offset="0.5" stop-color="#CCFF33"/>
<stop offset="1" stop-color="#38B000"/>
</linearGradient>
<linearGradient id="paint4_linear_31_2616" x1="30.2675" y1="69.8912" x2="30.4275" y2="7.96275" gradientUnits="userSpaceOnUse">
<stop stop-color="#007200"/>
<stop offset="0.5" stop-color="#CCFF33"/>
<stop offset="1" stop-color="#38B000"/>
</linearGradient>
</defs>
</svg>
